<svg width="100" height="100" viewBox="0 0 100 100" fill="none" xmlns="http://www.w3.org/2000/svg">
<path d="M64.4875 53.708L70.8 89.233C70.8707 89.6513 70.812 90.0812 70.6318 90.4653C70.4515 90.8494 70.1583 91.1692 69.7914 91.3822C69.4244 91.5951 69.0012 91.6909 68.5784 91.6568C68.1555 91.6227 67.7531 91.4603 67.425 91.1913L52.5083 79.9955C51.7882 79.4575 50.9135 79.1668 50.0146 79.1668C49.1157 79.1668 48.2409 79.4575 47.5208 79.9955L32.5792 91.1872C32.2513 91.4557 31.8494 91.6178 31.4271 91.6519C31.0047 91.6861 30.582 91.5906 30.2153 91.3783C29.8486 91.166 29.5553 90.8469 29.3747 90.4636C29.194 90.0803 29.1345 89.651 29.2042 89.233L35.5125 53.708M75 33.333C75 47.1401 63.8071 58.333 50 58.333C36.1929 58.333 25 47.1401 25 33.333C25 19.5259 36.1929 8.33301 50 8.33301C63.8071 8.33301 75 19.5259 75 33.333Z" stroke="#FAFAFA" stroke-width="5" stroke-linecap="round" stroke-linejoin="round"/>
</svg>
